<svg xmlns="http://www.w3.org/2000/svg" viewBox="0 0 512 512">
  <defs>
    <linearGradient id="grad" x1="0%" y1="0%" x2="100%" y2="100%">
      <stop offset="0%" style="stop-color:#3B82F6;stop-opacity:1" />
      <stop offset="100%" style="stop-color:#8B5CF6;stop-opacity:1" />
    </linearGradient>
  </defs>
  
  <!-- Background -->
  <rect width="512" height="512" fill="url(#grad)" rx="80"/>
  
  <!-- Trophy Icon -->
  <g transform="translate(256, 180)">
    <path d="M-40,-60 L-60,-40 L-60,0 L-40,10 L40,10 L60,0 L60,-40 L40,-60 Z" 
          fill="#FBBF24" stroke="#F59E0B" stroke-width="4"/>
    <ellipse cx="0" cy="-70" rx="50" ry="20" fill="#FBBF24" stroke="#F59E0B" stroke-width="4"/>
    <rect x="-15" y="10" width="30" height="40" fill="#F59E0B"/>
    <rect x="-40" y="50" width="80" height="15" rx="7" fill="#F59E0B"/>
    
    <!-- Star -->
    <path d="M0,-90 L7,-70 L27,-70 L12,-58 L18,-38 L0,-50 L-18,-38 L-12,-58 L-27,-70 L-7,-70 Z" 
          fill="#FCD34D"/>
  </g>
  
  <!-- Text -->
  <text x="256" y="340" font-family="Arial, sans-serif" font-size="72" font-weight="bold" 
        text-anchor="middle" fill="white">ALE-RR</text>
  <text x="256" y="400" font-family="Arial, sans-serif" font-size="48" font-weight="bold" 
        text-anchor="middle" fill="#FCD34D">TOP 5</text>
</svg>
